HIERARCHY
ROOT Hips
{
  OFFSET 37.7272 91.0171 -270.621
  CHANNELS 6 Xposition Yposition Zposition Zrotation Xrotation Yrotation
  JOINT ToSpine
  {
    OFFSET -0.0105055 1.38907 -7.13956
    CHANNELS 3 Zrotation Xrotation Yrotation
    JOINT Spine
    {
      OFFSET 0.0105055 10 1
      CHANNELS 3 Zrotation Xrotation Yrotation
      JOINT Spine1
      {
        OFFSET 0 12 1.60637
        CHANNELS 3 Zrotation Xrotation Yrotation
        JOINT Neck
        {
          OFFSET 0 27 2.26658
          CHANNELS 3 Zrotation Xrotation Yrotation
          JOINT Head
          {
            OFFSET 0 9 2.12705
            CHANNELS 3 Zrotation Xrotation Yrotation
            End Site
            {
              OFFSET 0 11 2
            }
          }
        }
        JOINT LeftShoulder
        {
          OFFSET 8 19.6109 2.86452
          CHANNELS 3 Zrotation Xrotation Yrotation
          JOINT LeftArm
          {
            OFFSET 12 1 0.681055
            CHANNELS 3 Zrotation Xrotation Yrotation
            JOINT LeftForeArm
            {
              OFFSET 19 0 -1.52608
              CHANNELS 3 Zrotation Xrotation Yrotation
              JOINT LeftHand
              {
                OFFSET 23 0 0
                CHANNELS 3 Zrotation Xrotation Yrotation
                End Site
                {
                  OFFSET 10 0 0
                }
              }
            }
          }
        }
        JOINT RightShoulder
        {
          OFFSET -8 19.6109 2.86452
          CHANNELS 3 Zrotation Xrotation Yrotation
          JOINT RightArm
          {
            OFFSET -12 1 0.681055
            CHANNELS 3 Zrotation Xrotation Yrotation
            JOINT RightForeArm
            {
              OFFSET -19 0 -1.52608
              CHANNELS 3 Zrotation Xrotation Yrotation
              JOINT RightHand
              {
                OFFSET -23 0 0
                CHANNELS 3 Zrotation Xrotation Yrotation
                End Site
                {
                  OFFSET -10 0 0
                }
              }
            }
          }
        }
      }
    }
  }
  JOINT LeftUpLeg
  {
    OFFSET 9 -7.17245 0
    CHANNELS 3 Zrotation Xrotation Yrotation
    JOINT LeftLeg
    {
      OFFSET 0 -44.1113 0
      CHANNELS 3 Zrotation Xrotation Yrotation
      JOINT LeftFoot
      {
        OFFSET 0 -36.1829 0
        CHANNELS 3 Zrotation Xrotation Yrotation
        JOINT LeftToeBase
        {
          OFFSET 0 -4.84184 13
          CHANNELS 3 Zrotation Xrotation Yrotation
          End Site
          {
            OFFSET 0 1 6
          }
        }
      }
    }
  }
  JOINT RightUpLeg
  {
    OFFSET -9 -7.17245 0
    CHANNELS 3 Zrotation Xrotation Yrotation
    JOINT RightLeg
    {
      OFFSET 0 -44.0551 0
      CHANNELS 3 Zrotation Xrotation Yrotation
      JOINT RightFoot
      {
        OFFSET 0 -36.1469 0
        CHANNELS 3 Zrotation Xrotation Yrotation
        JOINT RightToeBase
        {
          OFFSET 0 -4.92256 13
          CHANNELS 3 Zrotation Xrotation Yrotation
          End Site
          {
            OFFSET 0 1 6
          }
        }
      }
    }
  }
}
MOTION
Frames:	10
Frame Time:	0.0333333
37.3975 90.7097 -274.084 -3.77317 7.96884 16.7635 0 0 0 2.18066 7.85365 -11.6783 5.34066 0.0452126 -12.6098 14.5635 -23.7618 7.77373 -6.74162 6.53058 10.181 -9.04739 2.25574 -10.1319 -22.5064 -4.14293 -59.2095 51.7839 -18.0724 -103.726 -0.472631 0.0187059 -5.00976 6.71016 1.74177 8.54151 61.5419 7.01583 -49.8602 -19.0948 4.78009 76.4654 6.76428 0.484522 8.17567 8.5118 12.9279 13.9243 -1.35259 24.3066 -20.8535 18.7082 -9.0597 1.5205 3.1154 -44.9482 -1.31683 1.31922 -50.783 0.517113 0.793285 77.075 -19.5197 -29.6798 -20.439 -5.48071 2.81913 -10.0345 -3.84353 
38.2532 91.5928 -264.175 -3.46902 7.44224 12.9725 0 0 0 2.12799 7.03599 -12.0881 6.76326 0.308325 -13.1293 11.8395 -27.211 10.3291 -5.83696 11.1903 11.7219 -8.42909 1.96435 -8.7845 -21.1794 -7.15252 -57.1214 49.0127 -18.9765 -105.778 -0.314142 -0.00341817 -4.73666 4.78281 1.74666 10.3247 59.5098 6.68035 -52.2114 -16.6608 3.8704 77.2897 7.5064 0.533572 8.13201 6.46136 21.4383 10.4605 -0.687778 15.8756 -17.699 16.0818 7.17079 -0.964015 2.88905 -38.028 -0.0541519 3.88576 -50.1491 3.76974 -0.429962 62.9475 -12.9777 -29.7674 -13.84 -3.65566 3.56774 -13.1021 -4.9426 
39.1644 92.4143 -250.369 -4.05984 8.01354 10.3613 0 0 0 2.46049 2.36769 -12.4403 7.97093 2.55835 -13.5357 10.4394 -27.8653 12.2496 -6.59652 13.2348 13.5435 -7.29335 1.67952 -7.76748 -21.4742 -6.65607 -56.5313 41.2752 -16.1366 -107.57 -4.02185 0.32767 -8.20416 3.98447 1.96686 12.7452 57.2521 5.05715 -54.3872 -12.5755 2.639 78.338 7.84161 0.54104 7.88092 5.21795 26.5947 8.66619 1.52743 15.1134 -19.4765 16.8545 12.0126 -1.74354 1.36934 -19.6318 -2.10679 5.45725 -48.2363 3.23598 -0.656103 43.0559 -1.27607 -29.3352 -7.63932 -2.01502 3.94859 -14.7425 -3.92004 
39.4774 92.2562 -238.464 -2.65895 7.69288 9.228 0 0 0 0.139698 0.407191 -11.8967 9.47021 3.82041 -13.0653 10.3623 -24.1463 11.7427 -7.98569 11.1444 13.9244 -8.72878 1.97788 -8.62102 -21.8868 0.529633 -54.8222 42.0479 -13.8172 -104.831 -2.0363 0.232338 -8.81187 7.16936 2.58254 13.8512 53.9908 2.49021 -54.0875 -9.73574 1.87569 79.1995 7.08455 0.47926 7.70805 3.83099 27.2306 6.51039 1.28238 25.5826 -18.581 17.2754 2.60869 -0.407277 1.65005 -11.5267 -5.43876 4.25472 -45.2307 -1.05002 0.230254 29.8025 8.16379 -27.6699 -6.05751 -1.46213 3.68252 -13.6794 -2.56585 
39.2156 92.1356 -227.728 -1.14853 5.55586 8.26664 0 0 0 -0.964294 2.15444 -10.7075 9.50248 3.85951 -12.06 9.97106 -21.5601 10.5414 -7.67426 10.2457 12.9845 -14.4488 2.7223 -9.19436 -21.1979 10.4643 -49.8024 49.6161 -13.3512 -101.112 0.24003 -0.0230734 -6.13045 13.3065 3.50507 13.6442 49.3089 -0.554426 -49.7237 -11.1732 2.09419 79.5184 5.77101 0.409361 8.18313 3.52634 25.4228 7.13035 -0.250558 41.4804 -13.5804 20.3083 4.92786 -1.04207 1.2496 -22.3862 -1.47705 4.55139 -41.392 -3.90335 0.00867992 27.601 9.96736 -23.5885 0.00050152 -0.0982495 3.82116 -14.3699 -7.18279 
38.83 92.0187 -216.992 -1.09479 3.086 7.00199 0 0 0 0.863912 5.50601 -8.90996 7.97807 1.98976 -10.4591 8.28223 -18.2598 9.26721 -6.40587 8.14405 11.4925 -22.3348 3.54191 -8.81987 -22.15 18.3917 -40.9904 51.2288 -11.4174 -99.0342 -0.824324 0.0467796 -5.95441 19.2538 4.55471 13.9964 44.8432 -5.0852 -43.1731 -13.1019 2.30743 80.1857 3.83401 0.282387 8.27191 5.61435 20.1614 10.4633 0.635316 60.2183 -7.01936 22.6902 6.5162 -1.35837 2.09688 -29.1106 1.45433 6.10318 -38.3782 -5.67778 0.176935 37.0717 10.1316 -21.8637 1.69815 0.35295 2.84441 -8.82849 -7.83908 
38.2122 90.5329 -206.419 -2.85672 1.08701 5.87449 0 0 0 4.09495 8.44537 -6.63541 6.6247 -1.12152 -7.96673 4.28044 -14.7467 7.68591 -4.30308 3.71907 9.01886 -29.858 4.12269 -7.95203 -26.943 23.5363 -30.1784 52.0202 -7.57418 -95.8754 -1.44094 0.0730292 -5.5396 23.4548 5.05397 13.4327 42.2957 -10.3275 -33.7165 -11.7484 1.71402 81.8157 3.08212 0.173628 6.62152 11.2005 11.7739 11.9148 0.0253633 79.809 0.369058 23.2317 -3.24548 0.729941 1.7948 -25.4701 -1.01243 9.45414 -35.0645 -6.35863 -0.185905 50.1442 9.99088 -26.4736 -7.55683 -1.83307 2.29908 -7.144 -5.9844 
37.5537 89.1222 -196.67 -6.15982 0.32343 5.22647 0 0 0 9.04885 9.47086 -4.76388 4.59843 -1.76583 -5.55 2.14935 -15.7407 6.54448 -3.09922 2.77826 7.23178 -32.9983 4.17957 -7.16864 -37.0026 22.7873 -15.4092 53.4132 -4.23083 -93.1346 -3.34249 0.176325 -6.06322 26.548 5.31291 12.6439 42.0944 -12.5489 -18.4183 -8.09004 1.1605 81.8909 2.84599 0.135798 5.40333 17.587 -1.03767 10.9593 -178.731 83.5604 -179.37 28.4104 -10.4815 2.66329 1.7717 -25.4085 -0.0596519 14.3762 -29.173 -6.24487 0.0565849 55.2365 7.29272 -32.1924 -16.198 -4.68251 3.36747 -12.235 -6.44089 
37.1943 88.7354 -187.124 -6.25969 0.792034 5.3901 0 0 0 10.447 9.6148 -3.22795 2.56226 -1.46754 -3.66302 3.49526 -16.96 5.0766 -4.40546 3.28805 6.35765 -33.0045 3.81832 -6.24977 -44.6558 18.2505 3.5816 57.0864 -6.9522 -94.4797 -3.39381 0.201394 -6.80625 28.9467 6.11229 13.81 39.9588 -11.0358 -4.10039 -5.2505 0.632778 83.1472 1.30526 0.0612589 5.70998 17.2948 -17.0222 7.28282 179.859 74.9864 -177.882 31.8748 -14.6132 4.18757 1.78086 -25.0507 -1.69984 14.8384 -21.6025 -8.49325 0.0394696 54.4281 5.90316 -39.5136 -21.4298 -7.82927 4.27738 -16.3151 -6.23441 
36.8472 89.0942 -177.03 -3.139 1.96908 4.99793 0 0 0 8.63324 8.82774 -0.196717 0.594199 -1.44409 -0.256806 3.03591 -16.8893 2.14847 -4.72191 2.97714 3.63072 -33.2437 3.36715 -5.05618 -43.9791 17.8922 19.6157 55.9591 -12.7411 -98.4741 -2.60664 0.17219 -7.55989 27.4907 6.04351 14.3334 35.935 -7.21882 4.81574 -5.11701 0.164583 88.1627 1.88602 0.120722 6.8878 11.8794 -31.5805 3.32559 -179.917 76.7995 -176.124 31.3303 -16.8907 4.76021 1.79562 -24.6109 -4.43239 11.6873 -12.9667 -10.7178 -0.00960836 50.8552 6.92855 -41.0556 -26.6432 -10.0164 4.36698 -16.3281 -4.29185 
